<svg width="255" height="255" viewBox="0 0 255 255" fill="none" xmlns="http://www.w3.org/2000/svg">
<g clip-path="url(#clip0_0_1)">
<path d="M26.7552 41.8528C25.2522 31.0226 32.7033 21.0091 43.3978 19.487L178.945 0.195183C189.64 -1.3269 199.527 6.21881 201.03 17.049L228.245 213.147C229.748 223.977 222.297 233.991 211.602 235.513L76.0548 254.805C65.3602 256.327 55.4726 248.781 53.9697 237.951L26.7552 41.8528Z" fill="url(#paint0_linear_0_1)"/>
<path d="M36.4372 40.4749C35.6857 35.0597 39.4113 30.053 44.7585 29.292L180.306 10.0001C185.653 9.23902 190.597 13.0119 191.349 18.427L218.563 214.525C219.314 219.94 215.589 224.947 210.242 225.708L74.6943 245C69.3467 245.761 64.4029 241.988 63.6512 236.573L36.4372 40.4749Z" fill="white"/>
<g clip-path="url(#clip1_0_1)">
<path d="M150.704 14.3255L73.889 25.6305C55.1726 28.385 42.233 45.7906 44.9875 64.5069L56.2925 141.322C59.047 160.038 76.4525 172.978 95.1689 170.223L171.984 158.918C190.7 156.164 203.64 138.758 200.885 120.042L189.58 43.227C186.826 24.5106 169.42 11.571 150.704 14.3255Z" fill="white"/>
<path d="M134.127 126.02L172.971 120.303C174.205 120.122 175.369 119.622 176.348 118.853C177.325 118.086 178.083 117.076 178.545 115.924C179.005 114.776 179.153 113.526 178.972 112.303C178.791 111.079 178.289 109.925 177.516 108.959L144.84 68.0163C144.065 67.0465 143.049 66.2978 141.893 65.8452C140.733 65.3907 139.474 65.247 138.242 65.4284C137.009 65.6098 135.845 66.11 134.865 66.8794C133.889 67.6458 133.131 68.6556 132.669 69.8075L127.685 82.2475L111.346 61.7606C110.571 60.7909 109.554 60.0424 108.398 59.5902C107.238 59.1359 105.979 58.9923 104.747 59.1738C103.514 59.3552 102.35 59.8553 101.37 60.6246C100.393 61.3908 99.6352 62.4005 99.1722 63.5523L74.9123 124.06C74.451 125.207 74.3023 126.457 74.4816 127.68C74.6615 128.903 75.162 130.057 75.9346 131.025C76.7092 131.996 77.7258 132.745 78.8821 133.197C80.0422 133.652 81.3011 133.795 82.5337 133.613L106.917 130.024C116.577 128.602 123.083 123.348 126.778 114.422L135.673 92.2414L140.439 80.3706L164.404 110.394L138.897 114.148L134.127 126.02ZM104.909 119.139L87.8918 121.639L106.955 74.1019L122.904 94.1206L116.536 110.007C114.064 115.81 110.652 118.294 104.909 119.139Z" fill="#00DC82"/>
</g>
<path d="M98.2222 165.481C94.2527 166.065 91.4872 169.854 92.069 173.809L97.8676 213.22C98.4495 217.174 102.189 220.006 106.158 219.422L176.966 209.004C180.935 208.42 183.7 204.631 183.118 200.676L177.32 161.266C176.738 157.312 172.998 154.48 169.029 155.064L100.227 165.187L100.226 165.186L98.2222 165.481ZM99.1725 171.973L169.984 161.554C170.409 161.492 170.759 161.734 170.83 162.222L176.629 201.631C176.7 202.119 176.435 202.452 176.011 202.514L105.203 212.933C104.779 212.995 104.429 212.752 104.357 212.265L98.5586 172.854C98.487 172.368 98.7518 172.037 99.1725 171.973Z" fill="url(#paint1_linear_0_1)"/>
<path d="M110.168 205.245L106.145 177.902L114.102 176.731L123.537 185.614L130.011 174.391L137.967 173.22L141.99 200.563L134.035 201.734L131.727 186.052L125.252 197.275L115.816 188.393L118.124 204.075L110.168 205.245ZM159.891 197.929L146.005 186.416L153.961 185.245L151.891 171.172L159.847 170.001L161.918 184.074L169.875 182.903L159.891 197.929Z" fill="url(#paint2_linear_0_1)"/>
</g>
<defs>
<linearGradient id="paint0_linear_0_1" x1="34.4337" y1="10.497" x2="207.453" y2="256.096" gradientUnits="userSpaceOnUse">
<stop stop-color="#00C58E"/>
<stop offset="1" stop-color="#2F495E"/>
</linearGradient>
<linearGradient id="paint1_linear_0_1" x1="95.5" y1="168" x2="181.5" y2="205.5" gradientUnits="userSpaceOnUse">
<stop stop-color="#03C08C"/>
<stop offset="1" stop-color="#2C4958"/>
</linearGradient>
<linearGradient id="paint2_linear_0_1" x1="96" y1="171.5" x2="181.5" y2="205" gradientUnits="userSpaceOnUse">
<stop stop-color="#03C08C"/>
<stop offset="1" stop-color="#2C4958"/>
</linearGradient>
<clipPath id="clip0_0_1">
<rect width="255" height="255" fill="white"/>
</clipPath>
<clipPath id="clip1_0_1">
<rect width="146.15" height="146.15" fill="white" transform="translate(40 30.618) rotate(-8.3722)"/>
</clipPath>
</defs>
</svg>
